# xmcd
#
# Track frame offsets:
#	182
#	16745
#	31595
#	44755
#	58177
#	68440
#	82900
#	99285
#	113647
#	127012
#	138650
#	151390
#	166395
#	178792
#	194047
#
# Disc length: 2754 seconds
#
# Revision: 1
# Processed by: cddbd v1.5.2PL0 Copyright (c) Steve Scherf et al.
# Submitted via: audiograbber 1.83.01
#
DISCID=c50ac00f
DTITLE=Quartetto Cetra - 063 - Signori: il Quartetto Cetra
DYEAR=1994
DGENRE=Folk
TTITLE0=Vecchia America
TTITLE1=Ricordate Marcellino
TTITLE2=Che centrattacco!
TTITLE3=Pietro Wughi il ciabattino
TTITLE4=Un bacio a mezzanotte
TTITLE5=Il Visconte di Castelfombrone
TTITLE6=Un romano a Copacabana
TTITLE7=Passa la prima Milano-Sanremo
TTITLE8=Un disco dei Platters
TTITLE9=Pummarola boat
TTITLE10=Vavà Didì Pelè
TTITLE11=Sole pizza e amore
TTITLE12=Però mi vuole bene
TTITLE13=Gli appassionati dell'Hot Club
TTITLE14=Un disco dei Beatles
EXTD=
EXTT0=
EXTT1=
EXTT2=
EXTT3=
EXTT4=
EXTT5=
EXTT6=
EXTT7=
EXTT8=
EXTT9=
EXTT10=
EXTT11=
EXTT12=
EXTT13=
EXTT14=
PLAYORDER=
